<svg id="svg" version="1.1" xmlns="http://www.w3.org/2000/svg" xmlns:xlink="http://www.w3.org/1999/xlink" width="400" height="400" viewBox="0, 0, 400,400"><g id="svgg"><path id="path0" d="M76.400 97.800 L 76.400 112.401 207.100 112.301 L 337.800 112.200 337.800 97.800 L 337.800 83.400 207.100 83.299 L 76.400 83.199 76.400 97.800 M134.400 156.000 L 134.400 170.400 222.600 170.400 L 310.800 170.400 310.800 156.000 L 310.800 141.600 222.600 141.600 L 134.400 141.600 134.400 156.000 M161.600 214.000 L 161.600 228.402 249.700 228.301 L 337.800 228.200 337.800 214.000 L 337.800 199.800 249.700 199.699 L 161.600 199.598 161.600 214.000 M134.583 258.101 C 134.476 258.378,134.437 264.904,134.495 272.602 L 134.600 286.600 200.600 286.600 L 266.600 286.600 266.600 272.200 L 266.600 257.800 200.688 257.699 C 148.011 257.618,134.737 257.699,134.583 258.101 M105.200 330.400 L 105.200 344.800 149.800 344.800 L 194.400 344.800 194.400 330.400 L 194.400 316.000 149.800 316.000 L 105.200 316.000 105.200 330.400 " stroke="none" fill="#fcfcfc" fill-rule="evenodd"></path><path id="path1" d="M175.432 0.371 C 172.786 0.524,171.410 0.766,171.299 1.100 C 171.186 1.440,170.190 1.600,168.190 1.600 C 166.572 1.600,165.136 1.780,165.000 2.000 C 164.864 2.220,163.696 2.400,162.405 2.400 C 160.851 2.400,159.854 2.603,159.457 3.000 C 159.082 3.376,158.098 3.600,156.829 3.600 C 155.713 3.600,154.800 3.780,154.800 4.000 C 154.800 4.220,153.984 4.400,152.987 4.400 C 151.745 4.400,151.102 4.589,150.945 5.000 C 150.783 5.420,150.128 5.600,148.757 5.600 C 147.681 5.600,146.800 5.780,146.800 6.000 C 146.800 6.220,146.204 6.400,145.476 6.400 C 144.749 6.400,143.804 6.664,143.376 6.987 C 142.949 7.310,142.015 7.580,141.300 7.587 C 140.585 7.594,140.000 7.780,140.000 8.000 C 140.000 8.220,139.364 8.400,138.587 8.400 C 137.701 8.400,137.089 8.623,136.945 9.000 C 136.803 9.370,136.195 9.600,135.357 9.600 C 134.611 9.600,134.000 9.780,134.000 10.000 C 134.000 10.220,133.364 10.400,132.587 10.400 C 131.701 10.400,131.089 10.623,130.945 11.000 C 130.803 11.370,130.195 11.600,129.357 11.600 C 128.611 11.600,128.000 11.780,128.000 12.000 C 128.000 12.220,127.550 12.400,127.000 12.400 C 126.378 12.400,126.000 12.627,126.000 13.000 C 126.000 13.417,125.580 13.600,124.624 13.600 C 123.867 13.600,123.136 13.780,123.000 14.000 C 122.864 14.220,122.313 14.400,121.776 14.400 C 121.175 14.400,120.800 14.631,120.800 15.000 C 120.800 15.373,120.422 15.600,119.800 15.600 C 119.250 15.600,118.800 15.780,118.800 16.000 C 118.800 16.220,118.363 16.400,117.829 16.400 C 117.294 16.400,116.587 16.670,116.257 17.000 C 115.927 17.330,115.284 17.600,114.829 17.600 C 114.373 17.600,114.000 17.780,114.000 18.000 C 114.000 18.220,113.550 18.400,113.000 18.400 C 112.378 18.400,112.000 18.627,112.000 19.000 C 112.000 19.373,111.622 19.600,111.000 19.600 C 110.450 19.600,110.000 19.780,110.000 20.000 C 110.000 20.220,109.634 20.400,109.187 20.400 C 108.741 20.400,108.271 20.670,108.145 21.000 C 108.018 21.330,107.484 21.600,106.957 21.600 C 106.431 21.600,106.000 21.780,106.000 22.000 C 106.000 22.220,105.743 22.400,105.429 22.400 C 105.114 22.400,104.613 22.644,104.314 22.943 C 104.015 23.242,103.102 23.728,102.285 24.024 C 101.468 24.319,100.800 24.795,100.800 25.080 C 100.800 25.368,100.353 25.600,99.800 25.600 C 99.250 25.600,98.800 25.760,98.800 25.957 C 98.800 26.153,98.350 26.426,97.800 26.564 C 97.250 26.702,96.800 26.992,96.800 27.208 C 96.800 27.423,96.530 27.600,96.200 27.600 C 95.870 27.600,95.600 27.760,95.600 27.957 C 95.600 28.153,95.150 28.426,94.600 28.564 C 94.050 28.702,93.600 28.992,93.600 29.208 C 93.600 29.423,93.306 29.600,92.946 29.600 C 92.586 29.600,91.875 30.050,91.365 30.600 C 90.855 31.150,90.135 31.600,89.765 31.600 C 89.395 31.600,88.675 32.050,88.165 32.600 C 87.655 33.150,87.010 33.600,86.732 33.600 C 86.453 33.600,85.860 34.017,85.413 34.528 C 84.966 35.038,84.330 35.577,84.000 35.725 C 82.873 36.232,81.812 36.999,80.993 37.900 C 80.543 38.395,79.865 38.800,79.487 38.800 C 79.109 38.800,78.800 38.980,78.800 39.200 C 78.800 39.420,78.530 39.600,78.200 39.600 C 77.870 39.600,77.600 39.793,77.600 40.029 C 77.600 40.653,76.088 41.906,74.400 42.680 C 73.555 43.067,72.800 43.866,72.800 44.371 C 72.800 44.607,72.607 44.800,72.371 44.800 C 71.818 44.800,70.800 45.818,70.800 46.371 C 70.800 46.607,70.416 46.800,69.947 46.800 C 69.478 46.800,68.500 47.430,67.774 48.200 C 67.048 48.970,66.262 49.600,66.027 49.600 C 65.792 49.600,65.600 49.793,65.600 50.029 C 65.600 50.582,64.582 51.600,64.029 51.600 C 63.793 51.600,63.600 51.793,63.600 52.029 C 63.600 52.582,62.582 53.600,62.029 53.600 C 61.793 53.600,61.600 53.793,61.600 54.029 C 61.600 54.582,60.582 55.600,60.029 55.600 C 59.793 55.600,59.600 55.840,59.600 56.132 C 59.600 56.425,59.170 56.895,58.644 57.176 C 58.118 57.458,57.458 58.118,57.176 58.644 C 56.895 59.170,56.425 59.600,56.132 59.600 C 55.840 59.600,55.600 59.793,55.600 60.029 C 55.600 60.582,54.582 61.600,54.029 61.600 C 53.793 61.600,53.600 61.793,53.600 62.029 C 53.600 62.582,52.582 63.600,52.029 63.600 C 51.793 63.600,51.600 63.793,51.600 64.029 C 51.600 64.582,50.582 65.600,50.029 65.600 C 49.793 65.600,49.600 65.792,49.600 66.027 C 49.600 66.262,48.970 67.048,48.200 67.774 C 47.430 68.500,46.800 69.478,46.800 69.947 C 46.800 70.416,46.607 70.800,46.371 70.800 C 45.818 70.800,44.800 71.818,44.800 72.371 C 44.800 72.607,44.607 72.800,44.371 72.800 C 43.747 72.800,42.494 74.312,41.720 76.000 C 41.333 76.845,40.534 77.600,40.029 77.600 C 39.793 77.600,39.600 77.870,39.600 78.200 C 39.600 78.530,39.420 78.800,39.200 78.800 C 38.980 78.800,38.800 79.109,38.800 79.487 C 38.800 79.865,38.395 80.543,37.900 80.993 C 36.999 81.812,36.232 82.873,35.725 84.000 C 35.577 84.330,35.038 84.966,34.528 85.413 C 34.017 85.860,33.600 86.453,33.600 86.732 C 33.600 87.010,33.150 87.655,32.600 88.165 C 32.050 88.675,31.600 89.395,31.600 89.765 C 31.600 90.135,31.150 90.855,30.600 91.365 C 30.050 91.875,29.600 92.586,29.600 92.946 C 29.600 93.306,29.423 93.600,29.208 93.600 C 28.992 93.600,28.702 94.050,28.564 94.600 C 28.426 95.150,28.153 95.600,27.957 95.600 C 27.760 95.600,27.600 95.870,27.600 96.200 C 27.600 96.530,27.423 96.800,27.208 96.800 C 26.992 96.800,26.702 97.250,26.564 97.800 C 26.426 98.350,26.153 98.800,25.957 98.800 C 25.760 98.800,25.600 99.250,25.600 99.800 C 25.600 100.353,25.368 100.800,25.080 100.800 C 24.795 100.800,24.319 101.468,24.024 102.285 C 23.728 103.102,23.242 104.015,22.943 104.314 C 22.644 104.613,22.400 105.114,22.400 105.429 C 22.400 105.743,22.220 106.000,22.000 106.000 C 21.780 106.000,21.600 106.431,21.600 106.957 C 21.600 107.484,21.330 108.018,21.000 108.145 C 20.670 108.271,20.400 108.741,20.400 109.187 C 20.400 109.634,20.220 110.000,20.000 110.000 C 19.780 110.000,19.600 110.450,19.600 111.000 C 19.600 111.622,19.373 112.000,19.000 112.000 C 18.627 112.000,18.400 112.378,18.400 113.000 C 18.400 113.550,18.220 114.000,18.000 114.000 C 17.780 114.000,17.600 114.373,17.600 114.829 C 17.600 115.284,17.330 115.927,17.000 116.257 C 16.670 116.587,16.400 117.294,16.400 117.829 C 16.400 118.363,16.220 118.800,16.000 118.800 C 15.780 118.800,15.600 119.250,15.600 119.800 C 15.600 120.422,15.373 120.800,15.000 120.800 C 14.631 120.800,14.400 121.175,14.400 121.776 C 14.400 122.313,14.220 122.864,14.000 123.000 C 13.780 123.136,13.600 123.867,13.600 124.624 C 13.600 125.580,13.417 126.000,13.000 126.000 C 12.627 126.000,12.400 126.378,12.400 127.000 C 12.400 127.550,12.220 128.000,12.000 128.000 C 11.780 128.000,11.600 128.611,11.600 129.357 C 11.600 130.195,11.370 130.803,11.000 130.945 C 10.623 131.089,10.400 131.701,10.400 132.587 C 10.400 133.364,10.220 134.000,10.000 134.000 C 9.780 134.000,9.600 134.611,9.600 135.357 C 9.600 136.195,9.370 136.803,9.000 136.945 C 8.623 137.089,8.400 137.701,8.400 138.587 C 8.400 139.364,8.220 140.000,8.000 140.000 C 7.780 140.000,7.594 140.585,7.587 141.300 C 7.580 142.015,7.310 142.949,6.987 143.376 C 6.664 143.804,6.400 144.749,6.400 145.476 C 6.400 146.204,6.220 146.800,6.000 146.800 C 5.780 146.800,5.600 147.681,5.600 148.757 C 5.600 150.128,5.420 150.783,5.000 150.945 C 4.589 151.102,4.400 151.745,4.400 152.987 C 4.400 153.984,4.220 154.800,4.000 154.800 C 3.780 154.800,3.600 155.713,3.600 156.829 C 3.600 158.098,3.376 159.082,3.000 159.457 C 2.603 159.854,2.400 160.851,2.400 162.405 C 2.400 163.696,2.220 164.864,2.000 165.000 C 1.780 165.136,1.600 166.572,1.600 168.190 C 1.600 170.189,1.440 171.187,1.100 171.300 C -0.393 171.797,-0.393 228.203,1.100 228.700 C 1.440 228.813,1.600 229.811,1.600 231.810 C 1.600 233.428,1.780 234.864,2.000 235.000 C 2.220 235.136,2.400 236.304,2.400 237.595 C 2.400 239.149,2.603 240.146,3.000 240.543 C 3.376 240.918,3.600 241.902,3.600 243.171 C 3.600 244.287,3.780 245.200,4.000 245.200 C 4.220 245.200,4.400 246.016,4.400 247.013 C 4.400 248.255,4.589 248.898,5.000 249.055 C 5.420 249.217,5.600 249.872,5.600 251.243 C 5.600 252.319,5.780 253.200,6.000 253.200 C 6.220 253.200,6.400 253.796,6.400 254.524 C 6.400 255.251,6.664 256.196,6.987 256.624 C 7.310 257.051,7.580 257.985,7.587 258.700 C 7.594 259.415,7.780 260.000,8.000 260.000 C 8.220 260.000,8.400 260.636,8.400 261.413 C 8.400 262.299,8.623 262.911,9.000 263.055 C 9.370 263.197,9.600 263.805,9.600 264.643 C 9.600 265.389,9.780 266.000,10.000 266.000 C 10.220 266.000,10.400 266.636,10.400 267.413 C 10.400 268.299,10.623 268.911,11.000 269.055 C 11.370 269.197,11.600 269.805,11.600 270.643 C 11.600 271.389,11.780 272.000,12.000 272.000 C 12.220 272.000,12.400 272.450,12.400 273.000 C 12.400 273.622,12.627 274.000,13.000 274.000 C 13.417 274.000,13.600 274.420,13.600 275.376 C 13.600 276.133,13.780 276.864,14.000 277.000 C 14.220 277.136,14.400 277.687,14.400 278.224 C 14.400 278.825,14.631 279.200,15.000 279.200 C 15.373 279.200,15.600 279.578,15.600 280.200 C 15.600 280.750,15.780 281.200,16.000 281.200 C 16.220 281.200,16.400 281.637,16.400 282.171 C 16.400 282.706,16.670 283.413,17.000 283.743 C 17.330 284.073,17.600 284.716,17.600 285.171 C 17.600 285.627,17.780 286.000,18.000 286.000 C 18.220 286.000,18.400 286.431,18.400 286.957 C 18.400 287.484,18.670 288.018,19.000 288.145 C 19.330 288.271,19.600 288.741,19.600 289.187 C 19.600 289.634,19.780 290.000,20.000 290.000 C 20.220 290.000,20.400 290.366,20.400 290.813 C 20.400 291.259,20.670 291.729,21.000 291.855 C 21.330 291.982,21.600 292.516,21.600 293.043 C 21.600 293.569,21.780 294.000,22.000 294.000 C 22.220 294.000,22.400 294.257,22.400 294.571 C 22.400 294.886,22.644 295.387,22.943 295.686 C 23.242 295.985,23.728 296.898,24.024 297.715 C 24.319 298.532,24.795 299.200,25.080 299.200 C 25.368 299.200,25.600 299.647,25.600 300.200 C 25.600 300.750,25.760 301.200,25.957 301.200 C 26.153 301.200,26.426 301.650,26.564 302.200 C 26.702 302.750,26.992 303.200,27.208 303.200 C 27.423 303.200,27.600 303.470,27.600 303.800 C 27.600 304.130,27.760 304.400,27.957 304.400 C 28.153 304.400,28.426 304.850,28.564 305.400 C 28.702 305.950,28.992 306.400,29.208 306.400 C 29.423 306.400,29.600 306.694,29.600 307.054 C 29.600 307.414,30.050 308.125,30.600 308.635 C 31.150 309.145,31.600 309.865,31.600 310.235 C 31.600 310.605,32.050 311.325,32.600 311.835 C 33.150 312.345,33.600 312.990,33.600 313.268 C 33.600 313.547,34.005 314.143,34.500 314.593 C 35.401 315.412,36.168 316.473,36.675 317.600 C 36.823 317.930,37.362 318.566,37.872 319.013 C 38.383 319.460,38.800 320.135,38.800 320.513 C 38.800 320.891,38.980 321.200,39.200 321.200 C 39.420 321.200,39.600 321.470,39.600 321.800 C 39.600 322.130,39.793 322.400,40.029 322.400 C 40.653 322.400,41.906 323.912,42.680 325.600 C 43.067 326.445,43.866 327.200,44.371 327.200 C 44.607 327.200,44.800 327.393,44.800 327.629 C 44.800 328.182,45.818 329.200,46.371 329.200 C 46.607 329.200,46.800 329.584,46.800 330.053 C 46.800 330.522,47.430 331.500,48.200 332.226 C 48.970 332.952,49.600 333.738,49.600 333.973 C 49.600 334.208,49.793 334.400,50.029 334.400 C 50.582 334.400,51.600 335.418,51.600 335.971 C 51.600 336.207,51.793 336.400,52.029 336.400 C 52.582 336.400,53.600 337.418,53.600 337.971 C 53.600 338.207,53.793 338.400,54.029 338.400 C 54.582 338.400,55.600 339.418,55.600 339.971 C 55.600 340.207,55.840 340.400,56.132 340.400 C 56.425 340.400,56.895 340.830,57.176 341.356 C 57.458 341.882,58.118 342.542,58.644 342.824 C 59.170 343.105,59.600 343.575,59.600 343.868 C 59.600 344.160,59.793 344.400,60.029 344.400 C 60.582 344.400,61.600 345.418,61.600 345.971 C 61.600 346.207,61.793 346.400,62.029 346.400 C 62.582 346.400,63.600 347.418,63.600 347.971 C 63.600 348.207,63.793 348.400,64.029 348.400 C 64.582 348.400,65.600 349.418,65.600 349.971 C 65.600 350.207,65.792 350.400,66.027 350.400 C 66.262 350.400,67.048 351.030,67.774 351.800 C 68.500 352.570,69.478 353.200,69.947 353.200 C 70.416 353.200,70.800 353.393,70.800 353.629 C 70.800 354.182,71.818 355.200,72.371 355.200 C 72.607 355.200,72.800 355.393,72.800 355.629 C 72.800 356.253,74.312 357.506,76.000 358.280 C 76.845 358.667,77.600 359.466,77.600 359.971 C 77.600 360.207,77.870 360.400,78.200 360.400 C 78.530 360.400,78.800 360.568,78.800 360.773 C 78.800 360.978,79.205 361.274,79.700 361.430 C 80.195 361.587,80.870 362.016,81.200 362.386 C 81.530 362.755,82.427 363.404,83.192 363.828 C 83.958 364.253,84.916 365.005,85.321 365.500 C 85.727 365.995,86.324 366.400,86.648 366.400 C 86.973 366.400,87.655 366.850,88.165 367.400 C 88.675 367.950,89.395 368.400,89.765 368.400 C 90.135 368.400,90.855 368.850,91.365 369.400 C 91.875 369.950,92.567 370.400,92.903 370.400 C 93.239 370.400,93.618 370.670,93.745 371.000 C 93.871 371.330,94.341 371.600,94.787 371.600 C 95.234 371.600,95.600 371.780,95.600 372.000 C 95.600 372.220,95.870 372.400,96.200 372.400 C 96.530 372.400,96.800 372.577,96.800 372.792 C 96.800 373.008,97.250 373.298,97.800 373.436 C 98.350 373.574,98.800 373.847,98.800 374.043 C 98.800 374.240,99.250 374.400,99.800 374.400 C 100.353 374.400,100.800 374.632,100.800 374.920 C 100.800 375.205,101.468 375.681,102.285 375.976 C 103.102 376.272,104.015 376.758,104.314 377.057 C 104.613 377.356,105.114 377.600,105.429 377.600 C 105.743 377.600,106.000 377.780,106.000 378.000 C 106.000 378.220,106.431 378.400,106.957 378.400 C 107.484 378.400,108.018 378.670,108.145 379.000 C 108.271 379.330,108.741 379.600,109.187 379.600 C 109.634 379.600,110.000 379.780,110.000 380.000 C 110.000 380.220,110.450 380.400,111.000 380.400 C 111.622 380.400,112.000 380.627,112.000 381.000 C 112.000 381.373,112.378 381.600,113.000 381.600 C 113.550 381.600,114.000 381.780,114.000 382.000 C 114.000 382.220,114.373 382.400,114.829 382.400 C 115.284 382.400,115.927 382.670,116.257 383.000 C 116.587 383.330,117.294 383.600,117.829 383.600 C 118.363 383.600,118.800 383.780,118.800 384.000 C 118.800 384.220,119.250 384.400,119.800 384.400 C 120.422 384.400,120.800 384.627,120.800 385.000 C 120.800 385.369,121.175 385.600,121.776 385.600 C 122.313 385.600,122.864 385.780,123.000 386.000 C 123.136 386.220,123.867 386.400,124.624 386.400 C 125.580 386.400,126.000 386.583,126.000 387.000 C 126.000 387.373,126.378 387.600,127.000 387.600 C 127.550 387.600,128.000 387.780,128.000 388.000 C 128.000 388.220,128.611 388.400,129.357 388.400 C 130.195 388.400,130.803 388.630,130.945 389.000 C 131.089 389.377,131.701 389.600,132.587 389.600 C 133.364 389.600,134.000 389.780,134.000 390.000 C 134.000 390.220,134.611 390.400,135.357 390.400 C 136.195 390.400,136.803 390.630,136.945 391.000 C 137.089 391.377,137.701 391.600,138.587 391.600 C 139.364 391.600,140.000 391.780,140.000 392.000 C 140.000 392.220,140.585 392.406,141.300 392.413 C 142.015 392.420,142.949 392.690,143.376 393.013 C 143.804 393.336,144.749 393.600,145.476 393.600 C 146.204 393.600,146.800 393.780,146.800 394.000 C 146.800 394.220,147.681 394.400,148.757 394.400 C 150.128 394.400,150.783 394.580,150.945 395.000 C 151.102 395.411,151.745 395.600,152.987 395.600 C 153.984 395.600,154.800 395.780,154.800 396.000 C 154.800 396.220,155.713 396.400,156.829 396.400 C 158.098 396.400,159.082 396.624,159.457 397.000 C 159.854 397.397,160.851 397.600,162.405 397.600 C 163.696 397.600,164.864 397.780,165.000 398.000 C 165.136 398.220,166.572 398.400,168.190 398.400 C 170.189 398.400,171.187 398.560,171.300 398.900 C 171.797 400.393,228.203 400.393,228.700 398.900 C 228.813 398.560,229.811 398.400,231.810 398.400 C 233.428 398.400,234.864 398.220,235.000 398.000 C 235.136 397.780,236.304 397.600,237.595 397.600 C 239.149 397.600,240.146 397.397,240.543 397.000 C 240.918 396.624,241.902 396.400,243.171 396.400 C 244.287 396.400,245.200 396.220,245.200 396.000 C 245.200 395.780,246.016 395.600,247.013 395.600 C 248.255 395.600,248.898 395.411,249.055 395.000 C 249.217 394.580,249.872 394.400,251.243 394.400 C 252.319 394.400,253.200 394.220,253.200 394.000 C 253.200 393.780,253.796 393.600,254.524 393.600 C 255.251 393.600,256.196 393.336,256.624 393.013 C 257.051 392.690,257.985 392.420,258.700 392.413 C 259.415 392.406,260.000 392.220,260.000 392.000 C 260.000 391.780,260.636 391.600,261.413 391.600 C 262.299 391.600,262.911 391.377,263.055 391.000 C 263.197 390.630,263.805 390.400,264.643 390.400 C 265.389 390.400,266.000 390.220,266.000 390.000 C 266.000 389.780,266.636 389.600,267.413 389.600 C 268.299 389.600,268.911 389.377,269.055 389.000 C 269.197 388.630,269.805 388.400,270.643 388.400 C 271.389 388.400,272.000 388.220,272.000 388.000 C 272.000 387.780,272.450 387.600,273.000 387.600 C 273.622 387.600,274.000 387.373,274.000 387.000 C 274.000 386.583,274.420 386.400,275.376 386.400 C 276.133 386.400,276.864 386.220,277.000 386.000 C 277.136 385.780,277.687 385.600,278.224 385.600 C 278.825 385.600,279.200 385.369,279.200 385.000 C 279.200 384.627,279.578 384.400,280.200 384.400 C 280.750 384.400,281.200 384.220,281.200 384.000 C 281.200 383.780,281.637 383.600,282.171 383.600 C 282.706 383.600,283.413 383.330,283.743 383.000 C 284.073 382.670,284.716 382.400,285.171 382.400 C 285.627 382.400,286.000 382.220,286.000 382.000 C 286.000 381.780,286.431 381.600,286.957 381.600 C 287.484 381.600,288.018 381.330,288.145 381.000 C 288.271 380.670,288.741 380.400,289.187 380.400 C 289.634 380.400,290.000 380.220,290.000 380.000 C 290.000 379.780,290.366 379.600,290.813 379.600 C 291.259 379.600,291.729 379.330,291.855 379.000 C 291.982 378.670,292.516 378.400,293.043 378.400 C 293.569 378.400,294.000 378.220,294.000 378.000 C 294.000 377.780,294.257 377.600,294.571 377.600 C 294.886 377.600,295.387 377.356,295.686 377.057 C 295.985 376.758,296.898 376.272,297.715 375.976 C 298.532 375.681,299.200 375.205,299.200 374.920 C 299.200 374.632,299.647 374.400,300.200 374.400 C 300.750 374.400,301.200 374.240,301.200 374.043 C 301.200 373.847,301.650 373.574,302.200 373.436 C 302.750 373.298,303.200 373.008,303.200 372.792 C 303.200 372.577,303.470 372.400,303.800 372.400 C 304.130 372.400,304.400 372.220,304.400 372.000 C 304.400 371.780,304.766 371.600,305.213 371.600 C 305.659 371.600,306.129 371.330,306.255 371.000 C 306.382 370.670,306.826 370.400,307.243 370.400 C 307.659 370.400,308.000 370.220,308.000 370.000 C 308.000 369.780,308.270 369.600,308.600 369.600 C 308.930 369.600,309.200 369.330,309.200 369.000 C 309.200 368.654,309.562 368.400,310.054 368.400 C 310.524 368.400,311.325 367.950,311.835 367.400 C 312.345 366.850,313.027 366.400,313.352 366.400 C 313.676 366.400,314.273 365.995,314.679 365.500 C 315.084 365.005,316.042 364.253,316.808 363.828 C 317.573 363.404,318.470 362.755,318.800 362.386 C 319.130 362.016,319.805 361.587,320.300 361.430 C 320.795 361.274,321.200 360.978,321.200 360.773 C 321.200 360.568,321.470 360.400,321.800 360.400 C 322.130 360.400,322.400 360.207,322.400 359.971 C 322.400 359.347,323.912 358.094,325.600 357.320 C 326.445 356.933,327.200 356.134,327.200 355.629 C 327.200 355.393,327.393 355.200,327.629 355.200 C 328.182 355.200,329.200 354.182,329.200 353.629 C 329.200 353.393,329.584 353.200,330.053 353.200 C 330.522 353.200,331.500 352.570,332.226 351.800 C 332.952 351.030,333.738 350.400,333.973 350.400 C 334.208 350.400,334.400 350.207,334.400 349.971 C 334.400 349.418,335.418 348.400,335.971 348.400 C 336.207 348.400,336.400 348.207,336.400 347.971 C 336.400 347.418,337.418 346.400,337.971 346.400 C 338.207 346.400,338.400 346.207,338.400 345.971 C 338.400 345.418,339.418 344.400,339.971 344.400 C 340.207 344.400,340.400 344.160,340.400 343.868 C 340.400 343.575,340.830 343.105,341.356 342.824 C 341.882 342.542,342.542 341.882,342.824 341.356 C 343.105 340.830,343.575 340.400,343.868 340.400 C 344.160 340.400,344.400 340.207,344.400 339.971 C 344.400 339.418,345.418 338.400,345.971 338.400 C 346.207 338.400,346.400 338.207,346.400 337.971 C 346.400 337.418,347.418 336.400,347.971 336.400 C 348.207 336.400,348.400 336.207,348.400 335.971 C 348.400 335.418,349.418 334.400,349.971 334.400 C 350.207 334.400,350.400 334.208,350.400 333.973 C 350.400 333.738,351.030 332.952,351.800 332.226 C 352.570 331.500,353.200 330.522,353.200 330.053 C 353.200 329.584,353.393 329.200,353.629 329.200 C 354.182 329.200,355.200 328.182,355.200 327.629 C 355.200 327.393,355.393 327.200,355.629 327.200 C 356.253 327.200,357.506 325.688,358.280 324.000 C 358.667 323.155,359.466 322.400,359.971 322.400 C 360.207 322.400,360.400 322.130,360.400 321.800 C 360.400 321.470,360.568 321.200,360.773 321.200 C 360.978 321.200,361.274 320.795,361.430 320.300 C 361.587 319.805,362.016 319.130,362.386 318.800 C 362.755 318.470,363.404 317.573,363.828 316.808 C 364.253 316.042,365.005 315.084,365.500 314.679 C 365.995 314.273,366.400 313.676,366.400 313.352 C 366.400 313.027,366.850 312.345,367.400 311.835 C 367.950 311.325,368.400 310.524,368.400 310.054 C 368.400 309.562,368.654 309.200,369.000 309.200 C 369.330 309.200,369.600 308.930,369.600 308.600 C 369.600 308.270,369.780 308.000,370.000 308.000 C 370.220 308.000,370.400 307.659,370.400 307.243 C 370.400 306.826,370.670 306.382,371.000 306.255 C 371.330 306.129,371.600 305.659,371.600 305.213 C 371.600 304.766,371.780 304.400,372.000 304.400 C 372.220 304.400,372.400 304.130,372.400 303.800 C 372.400 303.470,372.577 303.200,372.792 303.200 C 373.008 303.200,373.298 302.750,373.436 302.200 C 373.574 301.650,373.847 301.200,374.043 301.200 C 374.240 301.200,374.400 300.750,374.400 300.200 C 374.400 299.647,374.632 299.200,374.920 299.200 C 375.205 299.200,375.681 298.532,375.976 297.715 C 376.272 296.898,376.758 295.985,377.057 295.686 C 377.356 295.387,377.600 294.886,377.600 294.571 C 377.600 294.257,377.780 294.000,378.000 294.000 C 378.220 294.000,378.400 293.569,378.400 293.043 C 378.400 292.516,378.670 291.982,379.000 291.855 C 379.330 291.729,379.600 291.259,379.600 290.813 C 379.600 290.366,379.780 290.000,380.000 290.000 C 380.220 290.000,380.400 289.634,380.400 289.187 C 380.400 288.741,380.670 288.271,381.000 288.145 C 381.330 288.018,381.600 287.484,381.600 286.957 C 381.600 286.431,381.780 286.000,382.000 286.000 C 382.220 286.000,382.400 285.627,382.400 285.171 C 382.400 284.716,382.670 284.073,383.000 283.743 C 383.330 283.413,383.600 282.706,383.600 282.171 C 383.600 281.637,383.780 281.200,384.000 281.200 C 384.220 281.200,384.400 280.750,384.400 280.200 C 384.400 279.578,384.627 279.200,385.000 279.200 C 385.369 279.200,385.600 278.825,385.600 278.224 C 385.600 277.687,385.780 277.136,386.000 277.000 C 386.220 276.864,386.400 276.133,386.400 275.376 C 386.400 274.420,386.583 274.000,387.000 274.000 C 387.373 274.000,387.600 273.622,387.600 273.000 C 387.600 272.450,387.780 272.000,388.000 272.000 C 388.220 272.000,388.400 271.389,388.400 270.643 C 388.400 269.805,388.630 269.197,389.000 269.055 C 389.377 268.911,389.600 268.299,389.600 267.413 C 389.600 266.636,389.780 266.000,390.000 266.000 C 390.220 266.000,390.400 265.389,390.400 264.643 C 390.400 263.805,390.630 263.197,391.000 263.055 C 391.377 262.911,391.600 262.299,391.600 261.413 C 391.600 260.636,391.780 260.000,392.000 260.000 C 392.220 260.000,392.406 259.415,392.413 258.700 C 392.420 257.985,392.690 257.051,393.013 256.624 C 393.336 256.196,393.600 255.251,393.600 254.524 C 393.600 253.796,393.780 253.200,394.000 253.200 C 394.220 253.200,394.400 252.319,394.400 251.243 C 394.400 249.872,394.580 249.217,395.000 249.055 C 395.411 248.898,395.600 248.255,395.600 247.013 C 395.600 246.016,395.780 245.200,396.000 245.200 C 396.220 245.200,396.400 244.287,396.400 243.171 C 396.400 241.902,396.624 240.918,397.000 240.543 C 397.397 240.146,397.600 239.149,397.600 237.595 C 397.600 236.304,397.780 235.136,398.000 235.000 C 398.220 234.864,398.400 233.428,398.400 231.810 C 398.400 229.811,398.560 228.813,398.900 228.700 C 399.682 228.440,399.933 221.457,399.933 200.000 C 399.933 178.543,399.682 171.560,398.900 171.300 C 398.560 171.187,398.400 170.189,398.400 168.190 C 398.400 166.572,398.220 165.136,398.000 165.000 C 397.780 164.864,397.600 163.696,397.600 162.405 C 397.600 160.851,397.397 159.854,397.000 159.457 C 396.624 159.082,396.400 158.098,396.400 156.829 C 396.400 155.713,396.220 154.800,396.000 154.800 C 395.780 154.800,395.600 153.984,395.600 152.987 C 395.600 151.745,395.411 151.102,395.000 150.945 C 394.580 150.783,394.400 150.128,394.400 148.757 C 394.400 147.681,394.220 146.800,394.000 146.800 C 393.780 146.800,393.600 146.204,393.600 145.476 C 393.600 144.749,393.336 143.804,393.013 143.376 C 392.690 142.949,392.420 142.015,392.413 141.300 C 392.406 140.585,392.220 140.000,392.000 140.000 C 391.780 140.000,391.600 139.364,391.600 138.587 C 391.600 137.701,391.377 137.089,391.000 136.945 C 390.630 136.803,390.400 136.195,390.400 135.357 C 390.400 134.611,390.220 134.000,390.000 134.000 C 389.780 134.000,389.600 133.364,389.600 132.587 C 389.600 131.701,389.377 131.089,389.000 130.945 C 388.630 130.803,388.400 130.195,388.400 129.357 C 388.400 128.611,388.220 128.000,388.000 128.000 C 387.780 128.000,387.600 127.550,387.600 127.000 C 387.600 126.378,387.373 126.000,387.000 126.000 C 386.583 126.000,386.400 125.580,386.400 124.624 C 386.400 123.867,386.220 123.136,386.000 123.000 C 385.780 122.864,385.600 122.313,385.600 121.776 C 385.600 121.175,385.369 120.800,385.000 120.800 C 384.627 120.800,384.400 120.422,384.400 119.800 C 384.400 119.250,384.220 118.800,384.000 118.800 C 383.780 118.800,383.600 118.363,383.600 117.829 C 383.600 117.294,383.330 116.587,383.000 116.257 C 382.670 115.927,382.400 115.284,382.400 114.829 C 382.400 114.373,382.220 114.000,382.000 114.000 C 381.780 114.000,381.600 113.550,381.600 113.000 C 381.600 112.378,381.373 112.000,381.000 112.000 C 380.627 112.000,380.400 111.622,380.400 111.000 C 380.400 110.450,380.220 110.000,380.000 110.000 C 379.780 110.000,379.600 109.634,379.600 109.187 C 379.600 108.741,379.330 108.271,379.000 108.145 C 378.670 108.018,378.400 107.484,378.400 106.957 C 378.400 106.431,378.220 106.000,378.000 106.000 C 377.780 106.000,377.600 105.743,377.600 105.429 C 377.600 105.114,377.356 104.613,377.057 104.314 C 376.758 104.015,376.272 103.102,375.976 102.285 C 375.681 101.468,375.205 100.800,374.920 100.800 C 374.632 100.800,374.400 100.353,374.400 99.800 C 374.400 99.250,374.240 98.800,374.043 98.800 C 373.847 98.800,373.574 98.350,373.436 97.800 C 373.298 97.250,373.008 96.800,372.792 96.800 C 372.577 96.800,372.400 96.530,372.400 96.200 C 372.400 95.870,372.220 95.600,372.000 95.600 C 371.780 95.600,371.600 95.234,371.600 94.787 C 371.600 94.341,371.330 93.871,371.000 93.745 C 370.670 93.618,370.400 93.239,370.400 92.903 C 370.400 92.567,369.950 91.875,369.400 91.365 C 368.850 90.855,368.400 90.135,368.400 89.765 C 368.400 89.395,367.950 88.675,367.400 88.165 C 366.850 87.655,366.400 86.973,366.400 86.648 C 366.400 86.324,365.995 85.727,365.500 85.321 C 365.005 84.916,364.253 83.958,363.828 83.192 C 363.404 82.427,362.755 81.530,362.386 81.200 C 362.016 80.870,361.587 80.195,361.430 79.700 C 361.274 79.205,360.978 78.800,360.773 78.800 C 360.568 78.800,360.400 78.530,360.400 78.200 C 360.400 77.870,360.207 77.600,359.971 77.600 C 359.347 77.600,358.094 76.088,357.320 74.400 C 356.933 73.555,356.134 72.800,355.629 72.800 C 355.393 72.800,355.200 72.607,355.200 72.371 C 355.200 71.818,354.182 70.800,353.629 70.800 C 353.393 70.800,353.200 70.416,353.200 69.947 C 353.200 69.478,352.570 68.500,351.800 67.774 C 351.030 67.048,350.400 66.262,350.400 66.027 C 350.400 65.792,350.207 65.600,349.971 65.600 C 349.418 65.600,348.400 64.582,348.400 64.029 C 348.400 63.793,348.207 63.600,347.971 63.600 C 347.418 63.600,346.400 62.582,346.400 62.029 C 346.400 61.793,346.207 61.600,345.971 61.600 C 345.418 61.600,344.400 60.582,344.400 60.029 C 344.400 59.793,344.160 59.600,343.868 59.600 C 343.575 59.600,343.105 59.170,342.824 58.644 C 342.542 58.118,341.882 57.458,341.356 57.176 C 340.830 56.895,340.400 56.425,340.400 56.132 C 340.400 55.840,340.207 55.600,339.971 55.600 C 339.418 55.600,338.400 54.582,338.400 54.029 C 338.400 53.793,338.207 53.600,337.971 53.600 C 337.418 53.600,336.400 52.582,336.400 52.029 C 336.400 51.793,336.207 51.600,335.971 51.600 C 335.418 51.600,334.400 50.582,334.400 50.029 C 334.400 49.793,334.208 49.600,333.973 49.600 C 333.738 49.600,332.952 48.970,332.226 48.200 C 331.500 47.430,330.522 46.800,330.053 46.800 C 329.584 46.800,329.200 46.607,329.200 46.371 C 329.200 45.818,328.182 44.800,327.629 44.800 C 327.393 44.800,327.200 44.607,327.200 44.371 C 327.200 43.747,325.688 42.494,324.000 41.720 C 323.155 41.333,322.400 40.534,322.400 40.029 C 322.400 39.793,322.130 39.600,321.800 39.600 C 321.470 39.600,321.200 39.420,321.200 39.200 C 321.200 38.980,320.891 38.800,320.513 38.800 C 320.135 38.800,319.457 38.395,319.007 37.900 C 318.188 36.999,317.127 36.232,316.000 35.725 C 315.670 35.577,315.034 35.038,314.587 34.528 C 314.140 34.017,313.547 33.600,313.268 33.600 C 312.990 33.600,312.345 33.150,311.835 32.600 C 311.325 32.050,310.605 31.600,310.235 31.600 C 309.865 31.600,309.145 31.150,308.635 30.600 C 308.125 30.050,307.414 29.600,307.054 29.600 C 306.694 29.600,306.400 29.423,306.400 29.208 C 306.400 28.992,305.950 28.702,305.400 28.564 C 304.850 28.426,304.400 28.153,304.400 27.957 C 304.400 27.760,304.130 27.600,303.800 27.600 C 303.470 27.600,303.200 27.423,303.200 27.208 C 303.200 26.992,302.750 26.702,302.200 26.564 C 301.650 26.426,301.200 26.153,301.200 25.957 C 301.200 25.760,300.750 25.600,300.200 25.600 C 299.647 25.600,299.200 25.368,299.200 25.080 C 299.200 24.795,298.532 24.319,297.715 24.024 C 296.898 23.728,295.985 23.242,295.686 22.943 C 295.387 22.644,294.886 22.400,294.571 22.400 C 294.257 22.400,294.000 22.220,294.000 22.000 C 294.000 21.780,293.569 21.600,293.043 21.600 C 292.516 21.600,291.982 21.330,291.855 21.000 C 291.729 20.670,291.259 20.400,290.813 20.400 C 290.366 20.400,290.000 20.220,290.000 20.000 C 290.000 19.780,289.634 19.600,289.187 19.600 C 288.741 19.600,288.271 19.330,288.145 19.000 C 288.018 18.670,287.484 18.400,286.957 18.400 C 286.431 18.400,286.000 18.220,286.000 18.000 C 286.000 17.780,285.627 17.600,285.171 17.600 C 284.716 17.600,284.073 17.330,283.743 17.000 C 283.413 16.670,282.706 16.400,282.171 16.400 C 281.637 16.400,281.200 16.220,281.200 16.000 C 281.200 15.780,280.750 15.600,280.200 15.600 C 279.578 15.600,279.200 15.373,279.200 15.000 C 279.200 14.631,278.825 14.400,278.224 14.400 C 277.687 14.400,277.136 14.220,277.000 14.000 C 276.864 13.780,276.133 13.600,275.376 13.600 C 274.420 13.600,274.000 13.417,274.000 13.000 C 274.000 12.627,273.622 12.400,273.000 12.400 C 272.450 12.400,272.000 12.220,272.000 12.000 C 272.000 11.780,271.389 11.600,270.643 11.600 C 269.805 11.600,269.197 11.370,269.055 11.000 C 268.911 10.623,268.299 10.400,267.413 10.400 C 266.636 10.400,266.000 10.220,266.000 10.000 C 266.000 9.780,265.389 9.600,264.643 9.600 C 263.805 9.600,263.197 9.370,263.055 9.000 C 262.911 8.623,262.299 8.400,261.413 8.400 C 260.636 8.400,260.000 8.220,260.000 8.000 C 260.000 7.780,259.415 7.594,258.700 7.587 C 257.985 7.580,257.051 7.310,256.624 6.987 C 256.196 6.664,255.251 6.400,254.524 6.400 C 253.796 6.400,253.200 6.220,253.200 6.000 C 253.200 5.780,252.319 5.600,251.243 5.600 C 249.872 5.600,249.217 5.420,249.055 5.000 C 248.898 4.589,248.255 4.400,247.013 4.400 C 246.016 4.400,245.200 4.220,245.200 4.000 C 245.200 3.780,244.287 3.600,243.171 3.600 C 241.902 3.600,240.918 3.376,240.543 3.000 C 240.146 2.603,239.149 2.400,237.595 2.400 C 236.304 2.400,235.136 2.220,235.000 2.000 C 234.864 1.780,233.428 1.600,231.810 1.600 C 229.811 1.600,228.813 1.440,228.700 1.100 C 228.384 0.151,188.684 -0.393,175.432 0.371 M337.800 97.800 L 337.800 112.200 207.100 112.301 L 76.400 112.401 76.400 97.800 L 76.400 83.199 207.100 83.299 L 337.800 83.400 337.800 97.800 M310.800 156.000 L 310.800 170.400 222.600 170.400 L 134.400 170.400 134.400 156.000 L 134.400 141.600 222.600 141.600 L 310.800 141.600 310.800 156.000 M337.800 214.000 L 337.800 228.200 249.700 228.301 L 161.600 228.402 161.600 214.000 L 161.600 199.598 249.700 199.699 L 337.800 199.800 337.800 214.000 M266.600 272.200 L 266.600 286.600 200.600 286.600 L 134.600 286.600 134.495 272.602 C 134.437 264.904,134.476 258.378,134.583 258.101 C 134.737 257.699,148.011 257.618,200.688 257.699 L 266.600 257.800 266.600 272.200 M194.400 330.400 L 194.400 344.800 149.800 344.800 L 105.200 344.800 105.200 330.400 L 105.200 316.000 149.800 316.000 L 194.400 316.000 194.400 330.400 " stroke="none" fill="#040404" fill-rule="evenodd"></path></g></svg>