<svg width="186.912" height="79.13" viewBox="0 0 186.912 79.13" xmlns="http://www.w3.org/2000/svg"><g id="svgGroup" stroke-linecap="round" fill-rule="evenodd" font-size="9pt" stroke="#ffffff" stroke-width="0.25mm" fill="#ffffff" style="stroke:#000;stroke-width:0.25mm;fill:none"><path d="M 27.288 19.08 L 43.272 19.08 L 43.272 59.688 L 27.288 59.688 L 27.288 53.496 Q 25.416 56.376 22.284 58.176 A 13.287 13.287 0 0 1 17.905 59.723 A 17.895 17.895 0 0 1 14.832 59.976 Q 7.848 59.976 3.924 55.296 Q 0 50.616 0 42.624 L 0 19.08 L 15.912 19.08 L 15.912 40.608 A 8.662 8.662 0 0 0 16.112 42.525 Q 16.468 44.096 17.46 45.18 A 5.122 5.122 0 0 0 20.74 46.822 A 7.186 7.186 0 0 0 21.6 46.872 A 6.755 6.755 0 0 0 23.366 46.654 A 4.86 4.86 0 0 0 25.776 45.18 A 5.714 5.714 0 0 0 27.048 42.715 Q 27.265 41.846 27.286 40.822 A 10.722 10.722 0 0 0 27.288 40.608 L 27.288 19.08 Z" id="0" vector-effect="non-scaling-stroke"/><path d="M 66.456 19.08 L 66.456 62.496 A 23.846 23.846 0 0 1 65.628 69.078 Q 62.737 79.128 49.752 79.128 L 44.424 79.128 L 44.424 65.52 L 47.52 65.52 A 6.106 6.106 0 0 0 48.319 65.472 Q 49.2 65.355 49.69 64.958 A 1.671 1.671 0 0 0 49.788 64.872 A 1.943 1.943 0 0 0 50.265 64.13 Q 50.381 63.819 50.432 63.432 A 4.964 4.964 0 0 0 50.472 62.784 L 50.472 19.08 L 66.456 19.08 Z M 55.549 15.539 A 12.692 12.692 0 0 0 58.392 15.84 Q 62.496 15.84 65.016 13.608 A 7.482 7.482 0 0 0 66.804 11.306 A 7.408 7.408 0 0 0 67.536 7.992 A 9.186 9.186 0 0 0 67.526 7.565 A 7.321 7.321 0 0 0 65.016 2.268 A 8.535 8.535 0 0 0 61.247 0.319 A 12.108 12.108 0 0 0 58.392 0 A 12.55 12.55 0 0 0 55.604 0.293 A 8.569 8.569 0 0 0 51.696 2.268 A 7.522 7.522 0 0 0 49.826 4.789 A 7.739 7.739 0 0 0 49.176 7.992 A 8.809 8.809 0 0 0 49.186 8.412 A 7.146 7.146 0 0 0 51.696 13.608 A 8.603 8.603 0 0 0 55.549 15.539 Z" id="1" vector-effect="non-scaling-stroke"/><path d="M 112.608 42.192 L 86.904 42.192 A 10.181 10.181 0 0 0 87.219 44.176 Q 88.062 47.257 90.931 47.437 A 5.813 5.813 0 0 0 91.296 47.448 A 4.39 4.39 0 0 0 92.941 47.155 Q 94.039 46.715 94.739 45.615 A 5.405 5.405 0 0 0 95.04 45.072 L 111.96 45.072 Q 111.096 49.392 108.324 52.812 A 19.473 19.473 0 0 1 101.602 58.087 A 22.462 22.462 0 0 1 101.34 58.212 A 21.1 21.1 0 0 1 93.374 60.159 A 24.88 24.88 0 0 1 92.088 60.192 A 24.812 24.812 0 0 1 86.038 59.481 A 20.576 20.576 0 0 1 81.324 57.672 Q 76.608 55.152 73.98 50.436 A 20.539 20.539 0 0 1 71.663 43.549 A 26.951 26.951 0 0 1 71.352 39.384 Q 71.352 33.048 73.98 28.332 Q 76.608 23.616 81.324 21.096 A 21.353 21.353 0 0 1 88.969 18.754 A 26.704 26.704 0 0 1 92.088 18.576 A 25.154 25.154 0 0 1 98.138 19.277 A 20.758 20.758 0 0 1 102.852 21.06 Q 107.568 23.544 110.196 28.152 A 19.74 19.74 0 0 1 112.499 34.825 A 26.152 26.152 0 0 1 112.824 39.024 A 22.954 22.954 0 0 1 112.687 41.572 A 20.379 20.379 0 0 1 112.608 42.192 Z M 87.12 35.208 L 96.624 35.208 A 5.007 5.007 0 0 0 96.484 33.99 A 3.335 3.335 0 0 0 95.328 32.148 A 4.656 4.656 0 0 0 93.13 31.187 A 6.336 6.336 0 0 0 92.088 31.104 A 6.495 6.495 0 0 0 90.158 31.369 Q 87.657 32.146 87.12 35.208 Z" id="2" vector-effect="non-scaling-stroke"/><path d="M 117.864 6.408 L 133.848 6.408 L 133.848 59.688 L 117.864 59.688 L 117.864 6.408 Z" id="3" vector-effect="non-scaling-stroke"/><path d="M 169.272 19.08 L 186.912 19.08 L 160.92 79.128 L 143.424 79.128 L 153.648 57.672 L 136.728 19.08 L 154.512 19.08 L 162.144 39.672 L 169.272 19.08 Z" id="4" vector-effect="non-scaling-stroke"/></g></svg>